<svg width="81" height="80" viewBox="0 0 81 80" fill="none" xmlns="http://www.w3.org/2000/svg">
<g id="ic-ball 2" clip-path="url(#clip0_223_12416)">
<g id="Group">
<path id="Vector" fill-rule="evenodd" clip-rule="evenodd" d="M40.5 0C51.5482 0 61.5482 4.47917 68.7812 11.7187C76.0208 18.9583 80.5 28.9583 80.5 40C80.5 51.0482 76.0208 61.0482 68.7812 68.2812C61.5417 75.5208 51.5417 80 40.5 80C29.4583 80 19.4518 75.5208 12.2187 68.2812C4.97917 61.0482 0.5 51.0482 0.5 40C0.5 28.9518 4.97917 18.9518 12.2187 11.7187C19.4518 4.47917 29.4518 0 40.5 0ZM50.5325 76.224L50.4544 76.1719L54.9401 61.1393L45.6888 50.8789L34.7839 50.7812L26.138 61.6016L30.474 76.1328L30.3763 76.1979C33.599 77.0964 36.9909 77.5781 40.5 77.5781C43.9766 77.5781 47.3424 77.1094 50.5325 76.224ZM8.45573 59.6419L24.3021 59.7201L32.5833 49.349L29.1589 38.8542L15.2135 32.7995L2.96094 41.7188C3.25391 48.2682 5.22656 54.3815 8.45573 59.6419ZM11.418 16.1979L16.2357 30.612L29.2435 36.263L39.2956 28.4701V13.6328L26.8737 4.96745C21.9779 6.875 17.5768 9.77864 13.9245 13.431C13.0456 14.3099 12.2057 15.2344 11.418 16.1979ZM53.6901 4.79818L41.7109 13.5221V28.4505L51.151 35.7487L64.6992 29.9414L69.3737 15.9505C68.6445 15.0716 67.8763 14.2318 67.069 13.4245C63.3125 9.66797 58.7617 6.69922 53.6901 4.79818ZM78.0325 41.901L78.0195 41.9076L65.0117 32.4349L52.1146 37.9622L48.1562 49.7005L57.095 59.6159C57.1341 59.6549 57.1536 59.7005 57.1667 59.7526L72.5312 59.681C75.7344 54.4596 77.707 48.3984 78.0325 41.901Z" fill="white"/>
</g>
</g>
<defs>
<clipPath id="clip0_223_12416">
<rect width="80" height="80" fill="white" transform="translate(0.5)"/>
</clipPath>
</defs>
</svg>
