<svg width="81" height="80" viewBox="0 0 81 80" fill="none" xmlns="http://www.w3.org/2000/svg">
<g id="ic-card 1" clip-path="url(#clip0_223_12409)">
<path id="Vector" d="M56.3514 58.1657L27.3435 69.9005L27.0415 70.023C23.5424 71.4746 19.5291 69.8172 18.0776 66.3166L1.02636 25.2473C-0.426765 21.7483 1.23214 17.735 4.73119 16.2834L30.7658 5.47438C34.2664 4.02126 38.2799 5.68016 39.7314 9.1775L41.7936 13.5991L53.9024 39.552L56.3514 58.1657Z" fill="#FCC938"/>
<path id="Vector_2" d="M56.3513 58.1657L27.3434 69.9005L26.1939 69.5544C22.5675 68.4605 20.5134 64.6349 21.6075 61.0068L34.4509 18.4337C35.424 15.2073 38.559 13.2251 41.7936 13.599L53.9023 39.552L56.3513 58.1657Z" fill="#E2A91B"/>
<path id="Vector_3" d="M80.2061 27.5968L67.3627 70.1714C66.2688 73.7978 62.4415 75.8518 58.8151 74.7578L36.3056 67.967L31.8268 66.6151C28.1989 65.5212 26.1464 61.6956 27.2404 58.0675L40.0839 15.4944C41.1778 11.868 45.0034 9.81398 48.6298 10.908L75.6196 19.0507C75.8661 19.1258 76.1061 19.2124 76.338 19.3135C79.5105 20.6657 81.225 24.2169 80.2061 27.5968Z" fill="#ED3B3B"/>
</g>
<defs>
<clipPath id="clip0_223_12409">
<rect width="80" height="80" fill="white" transform="translate(0.5)"/>
</clipPath>
</defs>
</svg>
