<svg width="48" height="48" viewBox="0 0 48 48" fill="none" xmlns="http://www.w3.org/2000/svg">
  <path fill-rule="evenodd" clip-rule="evenodd" d="M7 10C7 8.34315 8.34315 7 10 7H38C39.6569 7 41 8.34315 41 10V38C41 39.6569 39.6569 41 38 41H10C8.34315 41 7 39.6569 7 38V10ZM10 9C9.44772 9 9 9.44772 9 10V15H23V9H10ZM25 9V15H39V10C39 9.44772 38.5523 9 38 9H25ZM39 17H25V23H39V17ZM39 25H25V31H39V25ZM39 33H25V39H38C38.5523 39 39 38.5523 39 38V33ZM23 39V33H9V38C9 38.5523 9.44772 39 10 39H23ZM9 31H23V25H9V31ZM9 23H23V17H9V23Z" fill="white"/>
</svg>
