<svg width="38" height="37" viewBox="0 0 38 37" fill="none" xmlns="http://www.w3.org/2000/svg">
    <path fill-rule="evenodd" clip-rule="evenodd" d="M15 2H23V10H15V2ZM13 2C13 0.895431 13.8954 0 15 0H23C24.1046 0 25 0.895431 25 2V5.31026C30.8624 7.68335 35 13.4308 35 20.1469C35 21.12 34.913 22.0736 34.7462 23H36C37.1046 23 38 23.8954 38 25V33C38 34.1046 37.1046 35 36 35H28C27.3898 35 26.8435 34.7268 26.4767 34.296C24.2446 35.4777 21.6994 36.1469 19 36.1469C16.3006 36.1469 13.7554 35.4777 11.5233 34.296C11.1565 34.7268 10.6102 35 10 35H2C0.895431 35 0 34.1046 0 33V25C0 23.8954 0.895431 23 2 23H3.25381C3.08698 22.0736 3 21.12 3 20.1469C3 13.4308 7.13757 7.68335 13 5.31026V2ZM26 32.2742V25C26 23.8954 26.8954 23 28 23H32.7093C32.8997 22.0797 33 21.1255 33 20.1469C33 14.5634 29.7309 9.74129 25 7.49389V10C25 11.1046 24.1046 12 23 12H15C13.8954 12 13 11.1046 13 10V7.49389C8.26907 9.74129 5 14.5634 5 20.1469C5 21.1255 5.10025 22.0797 5.29073 23H10C11.1046 23 12 23.8954 12 25V32.2742C14.0587 33.4652 16.4485 34.1469 19 34.1469C21.5515 34.1469 23.9413 33.4652 26 32.2742ZM10 25H2L2 33H10V25ZM28 25H36V33H28V25Z" fill="white"/>
</svg>
