<svg width="81" height="80" viewBox="0 0 81 80" fill="none" xmlns="http://www.w3.org/2000/svg">
<g id="ic-goal 1" clip-path="url(#clip0_223_12349)">
<g id="Group">
<g id="Group_2">
<path id="Vector" d="M8.39863 29.1983H72.6015L75.6278 20.4666C75.7845 20.0146 75.5291 19.5831 75.0575 19.5029L64.1436 17.6457C63.6722 17.5655 63.2158 17.1199 63.1244 16.6501L61.0121 5.78448C60.9207 5.31492 60.4827 5.06762 60.0334 5.23211L49.6386 9.03947C49.1894 9.20388 48.573 9.04285 48.2618 8.6794L41.0635 0.272527C40.7524 -0.0908423 40.2479 -0.0908423 39.9367 0.272527L32.7384 8.6794C32.4273 9.04277 31.8109 9.20397 31.3616 9.03947L20.9668 5.23211C20.5176 5.06762 20.0794 5.31492 19.9882 5.78448L17.8758 16.65C17.7845 17.1197 17.3282 17.5654 16.8565 17.6457L5.94261 19.5028C5.47097 19.583 5.21561 20.0145 5.37231 20.4665L8.39863 29.1983Z" fill="#EB4335"/>
<path id="Vector_2" d="M5.94254 60.4971L16.8564 62.3542C17.328 62.4344 17.7843 62.8802 17.8757 63.3498L19.988 74.2154C20.0793 74.685 20.5174 74.9323 20.9666 74.7679L31.3614 70.9605C31.8107 70.796 32.427 70.9572 32.7382 71.3205L39.9366 79.7274C40.2477 80.0907 40.7522 80.0907 41.0633 79.7274L48.2618 71.3205C48.5729 70.9572 49.1893 70.7959 49.6385 70.9605L60.0333 74.7679C60.4826 74.9323 60.9207 74.685 61.0119 74.2154L63.1244 63.3498C63.2157 62.8803 63.672 62.4345 64.1437 62.3542L75.0576 60.4971C75.5292 60.4169 75.7846 59.9854 75.6279 59.5335L72.6015 50.8018H8.39855L5.37232 59.5334C5.21562 59.9855 5.47089 60.4169 5.94254 60.4971Z" fill="#EB4335"/>
<path id="Vector_3" d="M18.4377 35.4056C19.2139 35.4056 19.8615 35.5952 20.3801 35.9742C20.8986 36.3534 21.2519 36.8703 21.44 37.5254L24.1147 37.025C23.8478 35.8 23.2489 34.8401 22.318 34.1456C21.3868 33.4512 20.0935 33.104 18.4377 33.104C17.164 33.104 16.0995 33.3255 15.2443 33.7681C14.1222 34.3443 13.2701 35.1723 12.6878 36.2518C12.1056 37.3316 11.8145 38.5658 11.8145 39.9547C11.8145 41.2344 12.0751 42.4186 12.5969 43.5074C13.1184 44.5961 13.8978 45.4331 14.9351 46.0184C15.9722 46.6038 17.1882 46.8963 18.5833 46.8963C19.681 46.8963 20.7652 46.6885 21.8357 46.2731C22.9062 45.8577 23.7235 45.377 24.2876 44.8312V39.518H18.4832V41.7651H21.5674V43.4573C21.161 43.7729 20.6742 44.0412 20.1072 44.2624C19.5401 44.484 18.9745 44.5945 18.4105 44.5945C17.2701 44.5945 16.3482 44.1989 15.6448 43.4072C14.9411 42.6157 14.5894 41.4285 14.5894 39.8454C14.5894 38.3778 14.9365 37.2708 15.6311 36.5247C16.3254 35.7787 17.261 35.4056 18.4377 35.4056Z" fill="#EB4335"/>
<path id="Vector_4" d="M43.8663 43.6394H49.1976L50.362 46.6689H53.2915L47.9512 33.3315H45.1036L39.9087 46.6689H42.7654L43.8663 43.6394ZM46.4955 36.4429L48.3334 41.3921H44.6942L46.4955 36.4429Z" fill="#EB4335"/>
<path id="Vector_5" d="M54.7925 33.4407V46.6688H64.1815V44.4217H57.4854V33.4407H54.7925Z" fill="#EB4335"/>
<path id="Vector_6" d="M69.1852 33.3315H66.4194V36.4612L67.0835 43.2298H68.5302L69.1852 36.4612V33.3315Z" fill="#EB4335"/>
<path id="Vector_7" d="M69.0853 44.1123H66.5288V46.6688H69.0853V44.1123Z" fill="#EB4335"/>
<path id="Vector_8" d="M33.1053 32.8696C29.164 32.8696 25.9575 36.0761 25.9575 40.0174C25.9575 43.9587 29.164 47.1652 33.1053 47.1652C37.0466 47.1652 40.2532 43.9587 40.2532 40.0174C40.2532 36.0761 37.0466 32.8696 33.1053 32.8696ZM37.7551 42.7895L35.6565 43.1018C35.5745 43.114 35.4814 43.1859 35.449 43.2624L34.6183 45.2161C34.1377 45.3561 33.6305 45.4328 33.1053 45.4328C32.5802 45.4328 32.073 45.3561 31.5925 45.2161L30.7618 43.2624C30.7293 43.1859 30.6363 43.114 30.5543 43.1018L28.4556 42.7895C28.0211 42.0634 27.7519 41.2281 27.7 40.3349L29.2625 38.8971C29.3236 38.8409 29.3602 38.7292 29.3441 38.6477L28.9351 36.5666C29.514 35.8681 30.2653 35.3182 31.1223 34.9796L32.9741 36.0167C33.0466 36.0573 33.164 36.0573 33.2365 36.0167L35.0883 34.9796C35.9454 35.3182 36.6964 35.8681 37.2755 36.5666L36.8665 38.6477C36.8504 38.7291 36.8869 38.8408 36.9481 38.8971L38.5105 40.3349C38.4587 41.228 38.1895 42.0634 37.7551 42.7895Z" fill="#EB4335"/>
<path id="Vector_9" d="M35.403 39.1752L33.2269 37.5943C33.1597 37.5454 33.0507 37.5454 32.9835 37.5943L30.8075 39.1752C30.7402 39.224 30.7065 39.3277 30.7323 39.4067L31.5634 41.9647C31.589 42.0436 31.6772 42.1077 31.7603 42.1077H34.45C34.5331 42.1077 34.6212 42.0436 34.6468 41.9647L35.478 39.4067C35.5039 39.3276 35.4703 39.224 35.403 39.1752Z" fill="#EB4335"/>
</g>
</g>
</g>
<defs>
<clipPath id="clip0_223_12349">
<rect width="80" height="80" fill="white" transform="translate(0.5)"/>
</clipPath>
</defs>
</svg>
