<svg width="48" height="48" viewBox="0 0 48 48" fill="none" xmlns="http://www.w3.org/2000/svg">
    <path fill-rule="evenodd" clip-rule="evenodd" d="M7 10H17V20H7L7 10ZM5 10C5 8.89543 5.89543 8 7 8H17C18.1046 8 19 8.89543 19 10V14H24.0667C24.619 14 25.0667 14.4477 25.0667 15V23H30V19C30 17.8954 30.8954 17 32 17H42C43.1046 17 44 17.8954 44 19V29C44 30.1046 43.1046 31 42 31H32C30.8954 31 30 30.1046 30 29V25H25.0667V33C25.0667 33.5523 24.619 34 24.0667 34H19V38C19 39.1046 18.1046 40 17 40H7C5.89543 40 5 39.1046 5 38V28C5 26.8954 5.89543 26 7 26H17C18.1046 26 19 26.8954 19 28V32H23.0667V16H19V20C19 21.1046 18.1046 22 17 22H7C5.89543 22 5 21.1046 5 20V10ZM7 28H17V38H7L7 28Z" fill="white"/>
</svg>
