<svg width="81" height="80" viewBox="0 0 81 80" fill="none" xmlns="http://www.w3.org/2000/svg">
<g id="ic-stadium 1">
<path id="Vector" d="M7.16683 70H73.8335C74.7175 70 75.5654 69.6488 76.1905 69.0237C76.8156 68.3986 77.1668 67.5507 77.1668 66.6667V13.3333C77.1668 12.4493 76.8156 11.6014 76.1905 10.9763C75.5654 10.3512 74.7175 10 73.8335 10H7.16683C6.28277 10 5.43493 10.3512 4.80981 10.9763C4.18469 11.6014 3.8335 12.4493 3.8335 13.3333V66.6667C3.8335 67.5507 4.18469 68.3986 4.80981 69.0237C5.43493 69.6488 6.28277 70 7.16683 70ZM70.5002 46.6667H63.8335V33.3333H70.5002V46.6667ZM43.8335 16.6667H70.5002V26.6667H60.5002C59.6161 26.6667 58.7683 27.0179 58.1431 27.643C57.518 28.2681 57.1668 29.1159 57.1668 30V50C57.1668 50.8841 57.518 51.7319 58.1431 52.357C58.7683 52.9821 59.6161 53.3333 60.5002 53.3333H70.5002V63.3333H43.8335V52.86C46.6921 52.1324 49.2268 50.4731 51.0372 48.1443C52.8476 45.8154 53.8304 42.9497 53.8304 40C53.8304 37.0502 52.8476 34.1846 51.0372 31.8557C49.2268 29.5269 46.6921 27.8676 43.8335 27.14V16.6667ZM47.1668 40C47.1668 41.3185 46.7758 42.6075 46.0433 43.7038C45.3107 44.8001 44.2696 45.6546 43.0514 46.1592C41.8332 46.6638 40.4928 46.7958 39.1996 46.5386C37.9063 46.2813 36.7185 45.6464 35.7861 44.714C34.8538 43.7817 34.2188 42.5938 33.9616 41.3006C33.7044 40.0074 33.8364 38.667 34.341 37.4488C34.8455 36.2306 35.7 35.1894 36.7964 34.4569C37.8927 33.7243 39.1816 33.3333 40.5002 33.3333C42.2683 33.3333 43.964 34.0357 45.2142 35.286C46.4644 36.5362 47.1668 38.2319 47.1668 40ZM10.5002 33.3333H17.1668V46.6667H10.5002V33.3333ZM10.5002 53.3333H20.5002C21.3842 53.3333 22.2321 52.9821 22.8572 52.357C23.4823 51.7319 23.8335 50.8841 23.8335 50V30C23.8335 29.1159 23.4823 28.2681 22.8572 27.643C22.2321 27.0179 21.3842 26.6667 20.5002 26.6667H10.5002V16.6667H37.1668V27.14C34.3082 27.8676 31.7735 29.5269 29.9631 31.8557C28.1528 34.1846 27.1699 37.0502 27.1699 40C27.1699 42.9497 28.1528 45.8154 29.9631 48.1443C31.7735 50.4731 34.3082 52.1324 37.1668 52.86V63.3333H10.5002V53.3333Z" fill="white"/>
</g>
</svg>
