<svg xmlns="http://www.w3.org/2000/svg" xmlns:xlink="http://www.w3.org/1999/xlink" width="500" zoomAndPan="magnify" viewBox="0 0 375 374.999991" height="500" preserveAspectRatio="xMidYMid meet" version="1.0"><defs><g/><clipPath id="dc32c0a5a1"><path d="M 26 76 L 346 76 L 346 307.148438 L 26 307.148438 Z M 26 76 " clip-rule="nonzero"/></clipPath></defs><g clip-path="url(#dc32c0a5a1)"><path fill="#ffffff" d="M 158.578125 144.308594 C 157.050781 142.015625 156.285156 140.484375 156.285156 140.484375 C 166.988281 132.839844 180.746094 132.839844 191.449219 138.191406 C 195.273438 138.957031 200.625 140.484375 206.738281 143.542969 C 215.148438 148.128906 219.734375 152.71875 221.265625 156.539062 C 215.914062 158.066406 211.328125 158.832031 208.269531 159.597656 C 209.796875 158.066406 212.855469 156.539062 216.679688 155.011719 C 211.328125 156.539062 205.210938 155.773438 198.332031 152.71875 C 191.449219 148.128906 185.335938 145.835938 181.511719 145.070312 C 187.628906 145.070312 192.980469 146.601562 198.332031 149.660156 C 189.921875 143.542969 179.21875 140.484375 168.515625 142.777344 C 173.867188 144.308594 176.925781 145.070312 176.925781 145.070312 C 169.28125 144.308594 160.871094 143.542969 158.578125 144.308594 Z M 185.335938 151.953125 C 177.691406 148.894531 165.457031 147.367188 159.34375 147.367188 C 160.871094 149.660156 160.871094 152.71875 161.636719 155.011719 C 163.164062 161.125 163.164062 151.1875 187.628906 161.125 C 189.921875 161.890625 192.214844 162.65625 192.980469 164.183594 C 196.039062 163.417969 197.566406 163.417969 199.859375 163.417969 C 196.039062 164.183594 193.742188 164.949219 193.742188 164.949219 C 194.507812 166.476562 196.039062 167.242188 197.566406 168.769531 C 199.859375 169.535156 201.386719 169.535156 202.917969 169.535156 C 200.625 170.300781 199.09375 170.300781 198.332031 170.300781 C 199.859375 173.355469 201.386719 174.886719 201.386719 174.886719 C 205.210938 172.59375 206.738281 169.535156 205.976562 166.476562 C 205.210938 164.949219 204.445312 164.183594 204.445312 164.183594 C 202.152344 164.183594 200.625 164.183594 200.625 164.183594 C 202.152344 162.65625 203.683594 161.890625 203.683594 161.890625 C 202.152344 161.125 201.386719 161.125 201.386719 161.125 C 196.800781 161.125 193.742188 161.125 191.449219 161.890625 C 196.039062 160.363281 197.566406 160.363281 197.566406 160.363281 C 189.921875 155.773438 183.804688 152.71875 179.984375 151.953125 C 183.804688 151.953125 185.335938 151.953125 185.335938 151.953125 Z M 195.273438 181.765625 C 191.449219 182.53125 188.390625 180.238281 185.335938 175.652344 C 185.335938 175.652344 184.570312 174.121094 182.277344 171.0625 C 186.863281 172.59375 188.390625 173.355469 188.390625 173.355469 C 189.921875 176.414062 190.6875 178.707031 190.6875 178.707031 C 189.15625 177.945312 187.628906 177.179688 186.863281 175.652344 C 189.15625 179.472656 192.214844 181.003906 195.273438 181.765625 Z M 156.285156 136.664062 C 157.8125 129.019531 157.8125 125.960938 164.695312 125.195312 C 183.804688 123.667969 196.800781 125.960938 206.738281 131.3125 C 204.445312 129.78125 203.683594 128.253906 203.683594 128.253906 C 211.328125 130.546875 218.972656 131.3125 225.851562 131.3125 C 226.617188 140.484375 226.617188 145.070312 226.617188 145.070312 C 219.734375 138.191406 213.621094 134.371094 209.03125 132.839844 C 213.621094 135.898438 217.441406 138.191406 219.734375 140.484375 C 212.855469 136.664062 206.738281 134.371094 200.625 134.371094 C 196.800781 135.132812 191.449219 134.371094 184.570312 132.078125 C 173.867188 128.253906 164.695312 129.78125 156.285156 136.664062 Z M 185.335938 171.0625 C 180.746094 169.535156 175.398438 168.007812 175.398438 168.007812 C 174.632812 166.476562 170.808594 163.417969 165.457031 160.363281 C 173.101562 161.125 179.21875 165.710938 185.335938 171.0625 Z M 182.277344 117.550781 C 185.335938 119.84375 196.800781 120.609375 201.386719 108.378906 C 202.152344 108.378906 202.917969 109.90625 203.683594 111.4375 C 204.445312 117.550781 205.976562 122.902344 211.328125 122.902344 C 225.085938 121.375 235.789062 125.960938 241.90625 136.664062 C 248.785156 143.542969 257.957031 148.894531 270.191406 152.71875 C 265.605469 155.011719 260.253906 156.539062 254.902344 157.304688 C 261.015625 157.304688 267.898438 156.539062 273.25 153.480469 C 277.070312 152.71875 280.894531 153.480469 283.949219 156.539062 C 283.1875 155.773438 282.421875 154.246094 281.65625 154.246094 C 285.480469 152.71875 289.300781 153.480469 292.359375 155.011719 C 290.832031 153.480469 289.300781 152.71875 287.773438 151.953125 C 298.476562 152.71875 309.941406 151.953125 322.175781 149.660156 C 327.523438 147.367188 332.875 148.128906 339.757812 144.308594 C 341.285156 144.308594 342.050781 145.070312 341.285156 145.835938 C 342.816406 145.070312 343.578125 144.308594 343.578125 145.070312 C 344.34375 146.601562 342.816406 147.367188 341.285156 148.128906 C 342.816406 147.367188 345.109375 146.601562 345.109375 147.367188 C 346.636719 148.894531 339.757812 151.953125 335.933594 152.71875 C 337.464844 151.953125 341.285156 150.421875 342.050781 149.660156 C 335.933594 152.71875 332.113281 154.246094 329.820312 155.011719 C 332.875 155.773438 336.699219 153.480469 337.464844 155.011719 C 338.992188 156.539062 338.226562 158.832031 332.113281 158.832031 C 329.820312 158.832031 326.761719 161.125 323.703125 159.597656 C 322.9375 158.832031 322.175781 158.832031 321.410156 158.832031 C 318.351562 158.066406 315.292969 159.597656 313 160.363281 C 308.414062 161.125 306.121094 161.125 297.710938 159.597656 C 300.769531 161.125 303.0625 161.125 305.355469 161.890625 C 298.476562 164.949219 288.539062 167.242188 284.714844 167.242188 C 275.542969 168.007812 269.425781 168.769531 264.839844 168.007812 C 248.785156 164.949219 238.082031 161.890625 231.203125 160.363281 C 222.792969 164.183594 215.148438 170.300781 206.738281 180.238281 C 203.683594 182.53125 196.800781 190.941406 192.980469 192.46875 C 191.449219 193.234375 189.921875 192.46875 188.390625 191.703125 C 188.390625 184.824219 185.335938 177.945312 180.746094 173.355469 C 183.042969 177.179688 185.335938 181.765625 186.097656 185.589844 C 184.570312 183.296875 182.277344 181.003906 179.984375 179.472656 C 183.804688 184.058594 186.097656 189.410156 186.097656 195.527344 C 183.042969 200.878906 179.21875 205.464844 175.398438 209.289062 C 167.753906 214.636719 157.8125 225.339844 150.167969 226.871094 C 165.457031 213.109375 163.164062 203.9375 152.460938 196.292969 C 165.457031 210.816406 154.757812 217.695312 147.113281 226.105469 C 144.816406 227.632812 142.523438 228.398438 140.996094 227.632812 C 138.703125 234.515625 134.117188 240.628906 127.234375 246.746094 C 117.296875 256.683594 108.886719 265.09375 102.007812 269.679688 C 99.714844 271.972656 96.65625 275.796875 95.128906 278.855469 C 91.304688 281.910156 89.011719 284.96875 87.484375 287.261719 C 79.839844 299.496094 72.195312 306.375 63.785156 307.140625 C 60.726562 305.609375 59.199219 303.316406 59.199219 300.257812 C 58.433594 301.789062 58.433594 304.082031 59.960938 305.609375 C 57.667969 303.316406 56.140625 301.023438 56.140625 298.730469 C 56.140625 296.4375 56.90625 294.144531 58.433594 291.847656 C 64.550781 287.261719 69.136719 283.441406 72.195312 281.148438 C 76.015625 276.558594 78.308594 274.265625 79.839844 271.972656 C 82.894531 269.679688 85.953125 267.386719 89.777344 265.09375 C 99.714844 250.570312 105.832031 241.394531 108.125 239.867188 C 112.710938 232.222656 117.296875 226.871094 121.882812 221.519531 C 120.355469 226.105469 120.355469 229.929688 121.882812 234.515625 C 121.882812 223.046875 124.175781 214.636719 127.234375 209.289062 C 132.585938 193.234375 139.464844 187.882812 159.34375 193.996094 C 151.699219 187.117188 140.996094 188.648438 137.9375 190.175781 C 145.582031 181.003906 158.578125 175.652344 166.988281 177.179688 C 152.460938 173.355469 141.761719 181.003906 135.644531 190.175781 C 137.9375 185.589844 139.464844 181.765625 141.761719 179.472656 C 136.410156 184.824219 133.351562 189.410156 131.058594 193.996094 C 124.175781 182.53125 120.355469 171.828125 121.121094 161.125 C 120.355469 163.417969 119.589844 165.710938 119.589844 168.769531 C 107.359375 175.652344 99.714844 178.707031 95.890625 177.179688 L 98.949219 178.707031 C 94.363281 179.472656 90.539062 181.003906 89.011719 182.53125 C 82.132812 186.351562 75.25 186.351562 71.429688 192.46875 C 69.136719 194.761719 69.136719 192.46875 66.078125 191.703125 C 67.605469 193.234375 68.371094 193.234375 68.371094 194.761719 C 66.84375 198.585938 63.785156 198.585938 63.019531 201.644531 C 62.253906 204.699219 60.726562 203.9375 59.960938 203.9375 C 59.199219 203.171875 59.199219 203.171875 59.199219 202.40625 C 58.433594 203.171875 59.199219 203.9375 59.199219 203.9375 C 57.667969 204.699219 56.140625 206.992188 54.609375 210.050781 C 53.082031 210.816406 52.316406 210.816406 53.082031 209.289062 C 53.082031 207.757812 53.082031 206.992188 53.847656 206.230469 C 50.023438 207.757812 49.261719 207.757812 50.789062 205.464844 C 56.140625 198.585938 61.492188 185.589844 69.898438 191.703125 C 67.605469 189.410156 66.078125 188.648438 63.785156 188.648438 C 66.078125 186.351562 71.429688 177.179688 85.953125 171.0625 C 83.660156 174.121094 82.132812 175.652344 81.367188 176.414062 C 84.425781 174.121094 88.246094 171.828125 92.070312 168.007812 C 98.1875 162.65625 104.300781 159.597656 109.652344 156.539062 L 118.824219 151.1875 C 117.296875 148.128906 116.53125 145.835938 117.296875 143.542969 C 121.882812 152.71875 128 152.71875 139.464844 148.128906 C 130.292969 148.128906 124.175781 151.953125 118.824219 142.015625 C 122.648438 141.25 125.707031 140.484375 128 137.425781 C 123.414062 138.957031 119.589844 140.484375 115.003906 140.484375 L 113.476562 138.191406 C 117.296875 135.898438 119.589844 133.605469 119.589844 130.546875 C 118.0625 133.605469 115.003906 135.898438 111.945312 137.425781 C 96.65625 138.957031 87.484375 138.191406 84.425781 134.371094 C 79.074219 132.078125 73.722656 130.546875 69.136719 130.546875 C 65.3125 129.019531 61.492188 128.253906 56.90625 127.488281 C 53.082031 129.78125 50.789062 129.78125 48.496094 131.3125 C 46.203125 132.839844 44.671875 134.371094 40.851562 135.132812 C 33.207031 135.898438 37.792969 123.667969 30.914062 118.316406 C 23.269531 107.613281 24.796875 102.261719 34.734375 106.847656 C 39.320312 109.140625 42.378906 110.671875 43.144531 111.4375 C 49.261719 114.492188 53.847656 115.257812 55.375 115.257812 C 59.960938 116.023438 63.785156 116.023438 67.605469 114.492188 C 89.011719 112.964844 102.773438 113.730469 110.417969 116.785156 C 116.53125 118.316406 121.882812 118.316406 126.472656 118.316406 C 131.820312 118.316406 133.351562 122.136719 137.171875 126.726562 C 137.9375 131.3125 137.171875 136.664062 131.058594 141.25 C 137.9375 140.484375 140.996094 130.546875 140.230469 127.488281 C 145.582031 132.078125 155.519531 148.894531 157.050781 161.890625 C 157.8125 149.660156 150.933594 134.371094 143.289062 125.960938 C 144.054688 126.726562 144.816406 127.488281 145.582031 128.253906 C 152.460938 123.667969 157.050781 120.609375 158.578125 118.316406 C 165.457031 115.257812 172.339844 114.492188 179.21875 116.785156 C 179.984375 116.785156 177.691406 111.4375 177.691406 110.671875 C 176.925781 109.90625 177.691406 112.199219 175.398438 111.4375 C 173.867188 110.671875 168.515625 101.496094 172.339844 101.496094 C 163.929688 86.972656 171.574219 76.269531 188.390625 77.035156 L 183.804688 78.5625 C 187.628906 77.800781 191.449219 78.5625 196.800781 80.855469 L 193.742188 81.621094 C 196.800781 84.679688 198.332031 86.972656 199.09375 88.5 C 201.386719 86.972656 202.917969 88.5 204.445312 93.089844 C 205.976562 96.910156 205.210938 98.441406 202.917969 99.203125 C 202.152344 99.203125 201.386719 99.203125 201.386719 99.203125 C 201.386719 102.261719 200.625 105.320312 199.859375 107.613281 C 199.09375 105.320312 199.859375 104.554688 198.332031 100.734375 C 199.859375 106.847656 197.566406 114.492188 191.449219 116.785156 C 189.15625 118.316406 186.097656 118.316406 182.277344 117.550781 Z M 182.277344 117.550781 " fill-opacity="1" fill-rule="evenodd"/></g><path fill="#ffffff" d="M 73.722656 86.207031 L 72.957031 85.445312 C 72.957031 86.207031 72.195312 86.207031 72.195312 86.207031 C 71.429688 86.207031 71.429688 86.207031 71.429688 86.972656 C 71.429688 90.03125 69.136719 93.089844 69.136719 93.089844 C 69.136719 93.851562 69.898438 95.382812 69.136719 98.441406 L 69.898438 97.675781 C 71.429688 96.144531 72.195312 94.617188 72.957031 92.324219 C 73.722656 90.796875 73.722656 88.5 73.722656 86.207031 Z M 46.203125 73.210938 L 44.671875 75.503906 C 44.671875 76.269531 45.4375 77.035156 45.4375 77.035156 C 46.203125 77.035156 49.261719 76.269531 51.554688 76.269531 C 52.316406 75.503906 53.847656 74.742188 55.375 73.976562 C 56.140625 73.210938 56.140625 73.210938 56.90625 73.210938 C 56.140625 72.449219 55.375 70.917969 54.609375 70.15625 C 52.316406 70.15625 50.023438 70.917969 47.730469 71.683594 C 46.964844 72.449219 46.964844 72.449219 46.203125 73.210938 Z M 38.558594 85.445312 C 38.558594 85.445312 38.558594 86.972656 39.320312 87.738281 C 40.851562 86.207031 42.378906 84.679688 43.144531 84.679688 C 43.144531 83.914062 43.144531 80.855469 44.671875 77.800781 C 44.671875 77.035156 44.671875 76.269531 43.910156 75.503906 L 43.144531 76.269531 C 43.144531 76.269531 42.378906 76.269531 42.378906 76.269531 C 40.851562 77.800781 40.085938 80.09375 39.320312 82.386719 C 38.558594 83.152344 38.558594 84.679688 38.558594 85.445312 Z M 63.019531 103.792969 L 63.019531 103.027344 C 59.960938 103.792969 57.667969 103.027344 57.667969 103.027344 C 56.90625 103.792969 54.609375 104.554688 50.789062 103.792969 L 50.789062 104.554688 C 54.609375 105.320312 59.199219 105.320312 63.019531 103.792969 Z M 63.019531 93.089844 C 62.253906 93.851562 59.960938 96.144531 56.90625 97.675781 C 57.667969 98.441406 57.667969 99.96875 57.667969 102.261719 C 58.433594 103.027344 59.960938 103.027344 63.019531 103.027344 C 63.019531 102.261719 66.078125 100.734375 68.371094 98.441406 C 69.136719 96.910156 68.371094 95.382812 68.371094 94.617188 C 68.371094 93.851562 68.371094 93.851562 68.371094 93.851562 C 65.3125 93.851562 63.785156 93.089844 63.019531 93.089844 Z M 72.195312 85.445312 L 72.957031 82.386719 C 72.195312 81.621094 72.195312 80.09375 71.429688 79.328125 C 71.429688 78.5625 70.664062 78.5625 70.664062 77.800781 L 66.84375 74.742188 L 64.550781 75.503906 C 65.3125 76.269531 66.078125 77.800781 66.84375 81.621094 C 69.136719 83.914062 70.664062 85.445312 70.664062 86.207031 C 71.429688 86.207031 72.195312 85.445312 72.195312 85.445312 Z M 66.84375 74.742188 L 69.136719 76.269531 C 68.371094 74.742188 67.605469 73.976562 66.84375 73.210938 Z M 52.316406 77.035156 L 53.847656 83.152344 C 57.667969 83.914062 59.960938 84.679688 60.726562 85.445312 C 60.726562 85.445312 61.492188 84.679688 61.492188 84.679688 C 63.785156 83.914062 65.3125 81.621094 66.078125 81.621094 C 65.3125 77.800781 64.550781 76.269531 63.785156 75.503906 C 63.785156 75.503906 59.199219 73.210938 56.90625 73.210938 C 56.90625 73.210938 53.847656 75.503906 52.316406 77.035156 Z M 50.023438 103.792969 C 50.023438 103.792969 47.730469 101.496094 46.203125 99.203125 C 45.4375 99.203125 43.144531 97.675781 41.613281 96.144531 L 40.851562 96.910156 C 43.144531 100.734375 46.203125 103.027344 50.023438 104.554688 Z M 62.253906 93.089844 C 62.253906 90.03125 60.726562 86.207031 60.726562 85.445312 C 59.960938 85.445312 57.667969 83.914062 53.847656 83.152344 C 53.847656 83.914062 50.023438 86.207031 48.496094 88.5 C 48.496094 88.5 48.496094 91.558594 50.023438 94.617188 C 50.789062 95.382812 53.082031 96.910156 56.90625 97.675781 C 59.199219 96.144531 62.253906 93.089844 62.253906 93.089844 Z M 40.085938 88.5 C 40.085938 88.5 39.320312 91.558594 41.613281 95.382812 C 43.144531 96.910156 45.4375 98.441406 46.203125 98.441406 L 49.261719 95.382812 C 48.496094 91.558594 48.496094 89.265625 48.496094 88.5 C 47.730469 87.738281 45.4375 86.972656 43.144531 85.445312 C 42.378906 85.445312 40.851562 86.207031 40.085938 88.5 Z M 46.203125 97.675781 C 46.203125 96.910156 46.203125 96.910156 46.203125 96.910156 C 46.203125 96.910156 46.203125 96.910156 46.964844 96.910156 C 46.964844 96.144531 46.964844 96.144531 46.964844 96.144531 C 46.964844 96.144531 46.964844 95.382812 46.964844 95.382812 C 47.730469 95.382812 47.730469 95.382812 47.730469 95.382812 L 47.730469 94.617188 C 47.730469 94.617188 48.496094 94.617188 48.496094 94.617188 C 48.496094 94.617188 48.496094 94.617188 47.730469 94.617188 C 47.730469 94.617188 47.730469 94.617188 47.730469 93.851562 C 47.730469 93.089844 47.730469 93.089844 47.730469 93.089844 C 47.730469 92.324219 47.730469 92.324219 47.730469 92.324219 C 47.730469 92.324219 46.964844 92.324219 46.964844 92.324219 C 46.964844 91.558594 46.964844 91.558594 46.964844 91.558594 C 46.964844 90.796875 46.964844 90.796875 46.964844 90.796875 C 46.964844 90.03125 46.964844 90.03125 46.964844 90.03125 C 46.964844 89.265625 46.964844 89.265625 46.964844 89.265625 L 47.730469 89.265625 L 47.730469 90.796875 C 47.730469 90.796875 47.730469 90.796875 47.730469 91.558594 C 47.730469 91.558594 47.730469 91.558594 48.496094 92.324219 L 48.496094 93.089844 C 48.496094 93.851562 48.496094 93.851562 48.496094 93.851562 C 49.261719 93.851562 49.261719 94.617188 49.261719 94.617188 L 49.261719 95.382812 C 49.261719 95.382812 48.496094 95.382812 48.496094 95.382812 C 48.496094 95.382812 48.496094 95.382812 48.496094 96.144531 C 48.496094 96.144531 47.730469 96.144531 47.730469 96.144531 C 47.730469 96.910156 47.730469 96.910156 46.964844 96.910156 C 46.964844 96.910156 46.964844 96.910156 46.203125 97.675781 Z M 50.023438 87.738281 C 50.023438 86.972656 50.789062 86.972656 50.789062 86.972656 C 50.789062 86.972656 50.789062 86.972656 50.789062 86.207031 C 51.554688 86.207031 51.554688 86.207031 51.554688 86.207031 L 52.316406 85.445312 C 52.316406 85.445312 52.316406 84.679688 53.082031 84.679688 C 53.082031 84.679688 53.847656 84.679688 53.847656 84.679688 C 53.847656 83.914062 53.847656 83.914062 53.847656 83.914062 L 54.609375 83.914062 C 54.609375 83.914062 55.375 83.914062 55.375 83.914062 C 55.375 84.679688 56.140625 84.679688 56.140625 84.679688 L 56.90625 84.679688 C 56.90625 84.679688 56.90625 84.679688 57.667969 84.679688 C 57.667969 84.679688 57.667969 85.445312 57.667969 85.445312 C 57.667969 85.445312 57.667969 85.445312 58.433594 85.445312 C 59.199219 86.207031 59.199219 86.207031 59.199219 86.207031 C 59.199219 86.207031 59.960938 86.207031 59.960938 86.207031 L 58.433594 86.207031 C 58.433594 86.207031 57.667969 85.445312 57.667969 85.445312 L 55.375 85.445312 C 55.375 85.445312 55.375 84.679688 55.375 84.679688 L 54.609375 84.679688 L 52.316406 86.972656 L 51.554688 86.972656 C 51.554688 86.972656 51.554688 86.972656 51.554688 87.738281 C 51.554688 87.738281 51.554688 87.738281 50.789062 87.738281 L 50.789062 88.5 L 50.023438 88.5 C 50.023438 87.738281 50.023438 87.738281 50.023438 87.738281 Z M 56.140625 75.503906 L 55.375 75.503906 L 54.609375 76.269531 C 54.609375 76.269531 53.847656 76.269531 53.847656 76.269531 C 53.847656 76.269531 53.847656 77.035156 53.847656 77.035156 C 53.847656 77.035156 53.082031 77.035156 53.082031 77.035156 C 53.082031 77.035156 53.082031 77.035156 53.847656 77.035156 C 53.847656 77.035156 53.847656 77.035156 53.847656 76.269531 C 54.609375 76.269531 54.609375 76.269531 54.609375 75.503906 C 54.609375 75.503906 55.375 75.503906 55.375 75.503906 L 55.375 74.742188 C 56.140625 74.742188 56.140625 74.742188 56.140625 74.742188 C 56.140625 74.742188 56.90625 73.976562 56.90625 73.976562 L 57.667969 73.976562 C 58.433594 73.976562 58.433594 73.976562 58.433594 73.976562 C 58.433594 73.976562 58.433594 73.976562 59.199219 73.976562 C 59.199219 73.976562 59.199219 73.976562 59.199219 74.742188 C 59.960938 74.742188 59.960938 74.742188 59.960938 74.742188 L 60.726562 74.742188 L 60.726562 75.503906 C 61.492188 75.503906 61.492188 75.503906 61.492188 75.503906 C 61.492188 75.503906 62.253906 75.503906 62.253906 75.503906 C 62.253906 75.503906 62.253906 76.269531 62.253906 76.269531 C 62.253906 76.269531 63.019531 76.269531 63.019531 76.269531 C 63.019531 76.269531 63.019531 77.035156 63.019531 77.035156 L 62.253906 76.269531 L 61.492188 76.269531 L 59.960938 75.503906 L 59.199219 75.503906 C 59.199219 75.503906 59.199219 75.503906 58.433594 75.503906 C 58.433594 74.742188 58.433594 74.742188 58.433594 74.742188 C 58.433594 74.742188 57.667969 74.742188 57.667969 74.742188 L 56.90625 74.742188 Z M 66.84375 80.09375 C 66.84375 80.09375 66.84375 79.328125 66.84375 79.328125 L 66.84375 77.800781 C 66.84375 77.800781 66.84375 77.800781 66.078125 77.800781 C 66.078125 77.800781 66.078125 77.800781 66.078125 77.035156 L 66.078125 76.269531 C 66.078125 76.269531 66.078125 76.269531 66.078125 77.035156 C 66.078125 77.035156 66.84375 77.035156 66.84375 77.035156 C 66.84375 77.035156 66.84375 77.800781 66.84375 77.800781 C 66.84375 78.5625 67.605469 78.5625 67.605469 78.5625 C 67.605469 78.5625 67.605469 79.328125 67.605469 79.328125 C 67.605469 80.09375 67.605469 80.09375 67.605469 80.09375 C 67.605469 80.09375 67.605469 80.855469 68.371094 80.855469 C 68.371094 81.621094 68.371094 81.621094 68.371094 81.621094 L 69.136719 81.621094 C 69.136719 81.621094 69.136719 81.621094 69.136719 82.386719 C 69.136719 82.386719 69.136719 82.386719 69.898438 82.386719 C 69.898438 82.386719 69.898438 82.386719 69.898438 83.152344 C 70.664062 83.152344 70.664062 83.152344 70.664062 83.152344 C 70.664062 83.914062 70.664062 83.914062 70.664062 83.914062 C 70.664062 83.914062 70.664062 84.679688 70.664062 84.679688 C 71.429688 84.679688 71.429688 84.679688 71.429688 84.679688 C 71.429688 85.445312 71.429688 85.445312 71.429688 85.445312 C 71.429688 85.445312 71.429688 85.445312 71.429688 84.679688 L 70.664062 84.679688 C 70.664062 84.679688 70.664062 84.679688 70.664062 83.914062 C 70.664062 83.914062 69.898438 83.914062 69.898438 83.914062 C 69.898438 83.152344 69.898438 83.152344 69.136719 83.152344 C 69.136719 83.152344 69.136719 82.386719 69.136719 82.386719 L 68.371094 82.386719 L 67.605469 81.621094 C 67.605469 81.621094 67.605469 81.621094 67.605469 80.855469 L 66.84375 80.855469 Z M 63.785156 93.851562 C 63.785156 93.851562 63.785156 93.851562 64.550781 93.851562 C 65.3125 93.851562 65.3125 93.851562 65.3125 93.851562 C 66.078125 93.851562 66.078125 93.851562 66.078125 93.851562 C 66.84375 93.851562 66.84375 94.617188 66.84375 94.617188 C 67.605469 94.617188 67.605469 94.617188 67.605469 94.617188 C 66.84375 94.617188 66.84375 94.617188 66.84375 94.617188 C 66.84375 94.617188 66.078125 94.617188 66.078125 94.617188 C 66.078125 94.617188 66.078125 94.617188 65.3125 94.617188 C 65.3125 94.617188 65.3125 94.617188 64.550781 94.617188 C 64.550781 94.617188 64.550781 94.617188 63.785156 94.617188 C 63.019531 94.617188 63.019531 93.851562 63.019531 93.851562 C 63.019531 93.851562 63.019531 93.851562 63.785156 93.851562 Z M 63.785156 104.554688 C 59.199219 106.847656 54.609375 106.847656 50.789062 105.320312 C 45.4375 103.792969 42.378906 101.496094 40.085938 96.910156 C 40.085938 96.910156 39.320312 96.910156 39.320312 96.910156 C 39.320312 96.144531 39.320312 96.144531 39.320312 96.144531 C 39.320312 95.382812 39.320312 95.382812 39.320312 95.382812 C 39.320312 95.382812 38.558594 95.382812 38.558594 95.382812 C 38.558594 95.382812 38.558594 94.617188 38.558594 94.617188 C 38.558594 93.851562 38.558594 93.851562 38.558594 93.851562 C 37.027344 90.03125 37.027344 85.445312 37.792969 81.621094 C 39.320312 77.035156 42.378906 73.210938 46.964844 70.917969 C 51.554688 68.625 56.90625 67.859375 61.492188 69.390625 C 66.078125 70.917969 69.898438 73.976562 72.195312 78.5625 C 74.488281 83.152344 75.25 88.5 73.722656 93.089844 C 72.957031 96.144531 70.664062 99.203125 68.371094 101.496094 C 67.605469 102.261719 67.605469 102.261719 67.605469 102.261719 C 67.605469 102.261719 66.84375 102.261719 66.84375 103.027344 C 66.84375 103.027344 66.078125 103.027344 66.078125 103.792969 C 66.078125 103.792969 65.3125 103.792969 65.3125 103.792969 C 65.3125 103.792969 64.550781 104.554688 64.550781 104.554688 C 63.785156 104.554688 63.785156 104.554688 63.785156 104.554688 Z M 63.785156 104.554688 " fill-opacity="1" fill-rule="evenodd"/><g fill="#ffffff" fill-opacity="1"><g transform="translate(173.891788, 233.883558)"><g><path d="M 14.5625 0.484375 C 12.019531 0.484375 9.734375 -0.0507812 7.703125 -1.125 C 5.671875 -2.207031 4.078125 -3.707031 2.921875 -5.625 C 1.765625 -7.550781 1.1875 -9.734375 1.1875 -12.171875 C 1.1875 -14.597656 1.765625 -16.773438 2.921875 -18.703125 C 4.078125 -20.628906 5.671875 -22.128906 7.703125 -23.203125 C 9.734375 -24.285156 12.019531 -24.828125 14.5625 -24.828125 C 16.789062 -24.828125 18.796875 -24.429688 20.578125 -23.640625 C 22.367188 -22.847656 23.851562 -21.710938 25.03125 -20.234375 L 20.65625 -16.265625 C 19.070312 -18.171875 17.160156 -19.125 14.921875 -19.125 C 13.597656 -19.125 12.421875 -18.832031 11.390625 -18.25 C 10.359375 -17.675781 9.554688 -16.859375 8.984375 -15.796875 C 8.421875 -14.742188 8.140625 -13.535156 8.140625 -12.171875 C 8.140625 -10.796875 8.421875 -9.582031 8.984375 -8.53125 C 9.554688 -7.476562 10.359375 -6.660156 11.390625 -6.078125 C 12.421875 -5.503906 13.597656 -5.21875 14.921875 -5.21875 C 17.160156 -5.21875 19.070312 -6.164062 20.65625 -8.0625 L 25.03125 -4.109375 C 23.851562 -2.617188 22.367188 -1.476562 20.578125 -0.6875 C 18.796875 0.09375 16.789062 0.484375 14.5625 0.484375 Z M 14.5625 0.484375 "/></g></g></g><g fill="#ffffff" fill-opacity="1"><g transform="translate(199.546389, 233.883558)"><g><path d="M 14.703125 0.484375 C 12.128906 0.484375 9.816406 -0.0546875 7.765625 -1.140625 C 5.710938 -2.234375 4.101562 -3.738281 2.9375 -5.65625 C 1.769531 -7.582031 1.1875 -9.753906 1.1875 -12.171875 C 1.1875 -14.578125 1.769531 -16.742188 2.9375 -18.671875 C 4.101562 -20.597656 5.710938 -22.101562 7.765625 -23.1875 C 9.816406 -24.28125 12.128906 -24.828125 14.703125 -24.828125 C 17.273438 -24.828125 19.585938 -24.28125 21.640625 -23.1875 C 23.691406 -22.101562 25.300781 -20.597656 26.46875 -18.671875 C 27.644531 -16.742188 28.234375 -14.578125 28.234375 -12.171875 C 28.234375 -9.753906 27.644531 -7.582031 26.46875 -5.65625 C 25.300781 -3.738281 23.691406 -2.234375 21.640625 -1.140625 C 19.585938 -0.0546875 17.273438 0.484375 14.703125 0.484375 Z M 14.703125 -5.21875 C 15.929688 -5.21875 17.039062 -5.503906 18.03125 -6.078125 C 19.03125 -6.660156 19.820312 -7.476562 20.40625 -8.53125 C 20.988281 -9.582031 21.28125 -10.796875 21.28125 -12.171875 C 21.28125 -13.535156 20.988281 -14.742188 20.40625 -15.796875 C 19.820312 -16.859375 19.03125 -17.675781 18.03125 -18.25 C 17.039062 -18.832031 15.929688 -19.125 14.703125 -19.125 C 13.472656 -19.125 12.359375 -18.832031 11.359375 -18.25 C 10.367188 -17.675781 9.582031 -16.859375 9 -15.796875 C 8.425781 -14.742188 8.140625 -13.535156 8.140625 -12.171875 C 8.140625 -10.796875 8.425781 -9.582031 9 -8.53125 C 9.582031 -7.476562 10.367188 -6.660156 11.359375 -6.078125 C 12.359375 -5.503906 13.472656 -5.21875 14.703125 -5.21875 Z M 14.703125 -5.21875 "/></g></g></g><g fill="#ffffff" fill-opacity="1"><g transform="translate(228.955312, 233.883558)"><g><path d="M 2.4375 -24.34375 L 13.9375 -24.34375 C 16.601562 -24.34375 18.96875 -23.84375 21.03125 -22.84375 C 23.09375 -21.84375 24.691406 -20.425781 25.828125 -18.59375 C 26.960938 -16.769531 27.53125 -14.628906 27.53125 -12.171875 C 27.53125 -9.710938 26.960938 -7.566406 25.828125 -5.734375 C 24.691406 -3.898438 23.09375 -2.484375 21.03125 -1.484375 C 18.96875 -0.492188 16.601562 0 13.9375 0 L 2.4375 0 Z M 13.65625 -5.5 C 15.75 -5.5 17.425781 -6.085938 18.6875 -7.265625 C 19.945312 -8.453125 20.578125 -10.085938 20.578125 -12.171875 C 20.578125 -14.253906 19.945312 -15.882812 18.6875 -17.0625 C 17.425781 -18.25 15.75 -18.84375 13.65625 -18.84375 L 9.3125 -18.84375 L 9.3125 -5.5 Z M 13.65625 -5.5 "/></g></g></g><g fill="#ffffff" fill-opacity="1"><g transform="translate(257.669005, 233.883558)"><g><path d="M 21.96875 -5.3125 L 21.96875 0 L 2.4375 0 L 2.4375 -24.34375 L 21.515625 -24.34375 L 21.515625 -19.015625 L 9.25 -19.015625 L 9.25 -14.921875 L 20.0625 -14.921875 L 20.0625 -9.765625 L 9.25 -9.765625 L 9.25 -5.3125 Z M 21.96875 -5.3125 "/></g></g></g><g fill="#ffffff" fill-opacity="1"><g transform="translate(281.029293, 233.883558)"><g/></g></g><g fill="#ffffff" fill-opacity="1"><g transform="translate(291.14513, 233.883558)"><g><path d="M 14.703125 0.484375 C 12.128906 0.484375 9.816406 -0.0546875 7.765625 -1.140625 C 5.710938 -2.234375 4.101562 -3.738281 2.9375 -5.65625 C 1.769531 -7.582031 1.1875 -9.753906 1.1875 -12.171875 C 1.1875 -14.578125 1.769531 -16.742188 2.9375 -18.671875 C 4.101562 -20.597656 5.710938 -22.101562 7.765625 -23.1875 C 9.816406 -24.28125 12.128906 -24.828125 14.703125 -24.828125 C 17.273438 -24.828125 19.585938 -24.28125 21.640625 -23.1875 C 23.691406 -22.101562 25.300781 -20.597656 26.46875 -18.671875 C 27.644531 -16.742188 28.234375 -14.578125 28.234375 -12.171875 C 28.234375 -9.753906 27.644531 -7.582031 26.46875 -5.65625 C 25.300781 -3.738281 23.691406 -2.234375 21.640625 -1.140625 C 19.585938 -0.0546875 17.273438 0.484375 14.703125 0.484375 Z M 14.703125 -5.21875 C 15.929688 -5.21875 17.039062 -5.503906 18.03125 -6.078125 C 19.03125 -6.660156 19.820312 -7.476562 20.40625 -8.53125 C 20.988281 -9.582031 21.28125 -10.796875 21.28125 -12.171875 C 21.28125 -13.535156 20.988281 -14.742188 20.40625 -15.796875 C 19.820312 -16.859375 19.03125 -17.675781 18.03125 -18.25 C 17.039062 -18.832031 15.929688 -19.125 14.703125 -19.125 C 13.472656 -19.125 12.359375 -18.832031 11.359375 -18.25 C 10.367188 -17.675781 9.582031 -16.859375 9 -15.796875 C 8.425781 -14.742188 8.140625 -13.535156 8.140625 -12.171875 C 8.140625 -10.796875 8.425781 -9.582031 9 -8.53125 C 9.582031 -7.476562 10.367188 -6.660156 11.359375 -6.078125 C 12.359375 -5.503906 13.472656 -5.21875 14.703125 -5.21875 Z M 14.703125 -5.21875 "/></g></g></g><g fill="#ffffff" fill-opacity="1"><g transform="translate(320.554054, 233.883558)"><g><path d="M 9.3125 -19.015625 L 9.3125 -13.65625 L 20.0625 -13.65625 L 20.0625 -8.34375 L 9.3125 -8.34375 L 9.3125 0 L 2.4375 0 L 2.4375 -24.34375 L 21.515625 -24.34375 L 21.515625 -19.015625 Z M 9.3125 -19.015625 "/></g></g></g><g fill="#ffffff" fill-opacity="1"><g transform="translate(207.28973, 266.220446)"><g><path d="M 2.4375 -24.34375 L 13.9375 -24.34375 C 16.601562 -24.34375 18.96875 -23.84375 21.03125 -22.84375 C 23.09375 -21.84375 24.691406 -20.425781 25.828125 -18.59375 C 26.960938 -16.769531 27.53125 -14.628906 27.53125 -12.171875 C 27.53125 -9.710938 26.960938 -7.566406 25.828125 -5.734375 C 24.691406 -3.898438 23.09375 -2.484375 21.03125 -1.484375 C 18.96875 -0.492188 16.601562 0 13.9375 0 L 2.4375 0 Z M 13.65625 -5.5 C 15.75 -5.5 17.425781 -6.085938 18.6875 -7.265625 C 19.945312 -8.453125 20.578125 -10.085938 20.578125 -12.171875 C 20.578125 -14.253906 19.945312 -15.882812 18.6875 -17.0625 C 17.425781 -18.25 15.75 -18.84375 13.65625 -18.84375 L 9.3125 -18.84375 L 9.3125 -5.5 Z M 13.65625 -5.5 "/></g></g></g><g fill="#ffffff" fill-opacity="1"><g transform="translate(236.003422, 266.220446)"><g><path d="M 13.65625 0.484375 C 10.039062 0.484375 7.226562 -0.5 5.21875 -2.46875 C 3.21875 -4.4375 2.21875 -7.226562 2.21875 -10.84375 L 2.21875 -24.34375 L 9.109375 -24.34375 L 9.109375 -11.0625 C 9.109375 -7.164062 10.648438 -5.21875 13.734375 -5.21875 C 16.796875 -5.21875 18.328125 -7.164062 18.328125 -11.0625 L 18.328125 -24.34375 L 25.09375 -24.34375 L 25.09375 -10.84375 C 25.09375 -7.226562 24.09375 -4.4375 22.09375 -2.46875 C 20.09375 -0.5 17.28125 0.484375 13.65625 0.484375 Z M 13.65625 0.484375 "/></g></g></g><g fill="#ffffff" fill-opacity="1"><g transform="translate(263.326628, 266.220446)"><g><path d="M 7.609375 -18.875 L 0.140625 -18.875 L 0.140625 -24.34375 L 21.9375 -24.34375 L 21.9375 -18.875 L 14.5 -18.875 L 14.5 0 L 7.609375 0 Z M 7.609375 -18.875 "/></g></g></g><g fill="#ffffff" fill-opacity="1"><g transform="translate(285.400714, 266.220446)"><g><path d="M 15.46875 -8.71875 L 15.46875 0 L 8.59375 0 L 8.59375 -8.828125 L -0.703125 -24.34375 L 6.578125 -24.34375 L 12.34375 -14.671875 L 18.109375 -24.34375 L 24.78125 -24.34375 Z M 15.46875 -8.71875 "/></g></g></g><g fill="#ffffff" fill-opacity="1"><g transform="translate(201.89079, 295.633424)"><g><path d="M 3.625 -1.84375 L 8.84375 -1.84375 L 8.84375 0 L 1.59375 0 L 1.59375 -12.078125 L 3.625 -12.078125 Z M 3.625 -1.84375 "/></g></g></g><g fill="#ffffff" fill-opacity="1"><g transform="translate(219.568416, 295.633424)"><g><path d="M 10.21875 -10.25 L 3.625 -10.25 L 3.625 -6.984375 L 9.515625 -6.984375 L 9.515625 -5.15625 L 3.625 -5.15625 L 3.625 -1.828125 L 10.421875 -1.828125 L 10.421875 0 L 1.59375 0 L 1.59375 -12.078125 L 10.21875 -12.078125 Z M 10.21875 -10.25 "/></g></g></g><g fill="#ffffff" fill-opacity="1"><g transform="translate(239.350108, 295.633424)"><g><path d="M 9.390625 -2.71875 L 3.296875 -2.71875 L 2.140625 0 L 0.015625 0 L 5.34375 -12.078125 L 7.4375 -12.078125 L 12.71875 0 L 10.546875 0 Z M 8.609375 -4.53125 L 6.328125 -9.90625 L 4.046875 -4.53125 Z M 8.609375 -4.53125 "/></g></g></g><g fill="#ffffff" fill-opacity="1"><g transform="translate(260.54602, 295.633424)"><g><path d="M 9.84375 -5.9375 L 11.625 -5.9375 L 11.625 -1.484375 C 11 -1.015625 10.265625 -0.632812 9.421875 -0.34375 C 8.578125 -0.0507812 7.75 0.09375 6.9375 0.09375 C 5.15625 0.09375 3.648438 -0.492188 2.421875 -1.671875 C 1.203125 -2.859375 0.59375 -4.3125 0.59375 -6.03125 C 0.59375 -7.757812 1.210938 -9.207031 2.453125 -10.375 C 3.691406 -11.539062 5.226562 -12.125 7.0625 -12.125 C 7.90625 -12.125 8.738281 -11.972656 9.5625 -11.671875 C 10.382812 -11.367188 11.097656 -10.957031 11.703125 -10.4375 L 10.546875 -8.9375 C 9.554688 -9.851562 8.394531 -10.3125 7.0625 -10.3125 C 5.820312 -10.3125 4.773438 -9.894531 3.921875 -9.0625 C 3.078125 -8.238281 2.65625 -7.226562 2.65625 -6.03125 C 2.65625 -4.820312 3.082031 -3.804688 3.9375 -2.984375 C 4.800781 -2.160156 5.847656 -1.75 7.078125 -1.75 C 8.003906 -1.75 8.925781 -2.019531 9.84375 -2.5625 Z M 9.84375 -5.9375 "/></g></g></g><g fill="#ffffff" fill-opacity="1"><g transform="translate(281.931642, 295.633424)"><g><path d="M 11.84375 -12.078125 L 11.84375 -5 C 11.84375 -3.425781 11.378906 -2.179688 10.453125 -1.265625 C 9.523438 -0.359375 8.242188 0.09375 6.609375 0.09375 C 4.972656 0.09375 3.6875 -0.359375 2.75 -1.265625 C 1.8125 -2.179688 1.34375 -3.425781 1.34375 -5 L 1.34375 -12.078125 L 3.375 -12.078125 L 3.375 -5 C 3.375 -3.988281 3.664062 -3.191406 4.25 -2.609375 C 4.832031 -2.035156 5.625 -1.75 6.625 -1.75 C 7.613281 -1.75 8.390625 -2.035156 8.953125 -2.609375 C 9.523438 -3.179688 9.8125 -3.976562 9.8125 -5 L 9.8125 -12.078125 Z M 11.84375 -12.078125 "/></g></g></g><g fill="#ffffff" fill-opacity="1"><g transform="translate(303.575949, 295.633424)"><g><path d="M 10.21875 -10.25 L 3.625 -10.25 L 3.625 -6.984375 L 9.515625 -6.984375 L 9.515625 -5.15625 L 3.625 -5.15625 L 3.625 -1.828125 L 10.421875 -1.828125 L 10.421875 0 L 1.59375 0 L 1.59375 -12.078125 L 10.21875 -12.078125 Z M 10.21875 -10.25 "/></g></g></g></svg>